<svg width="36" height="36" viewBox="0 0 36 36" fill="none" xmlns="http://www.w3.org/2000/svg">
<path d="M18 4.275C20.61 4.275 22.725 6.39 22.725 9C22.725 11.61 20.61 13.725 18 13.725C15.39 13.725 13.275 11.61 13.275 9C13.275 6.39 15.39 4.275 18 4.275ZM18 24.525C24.6825 24.525 31.725 27.81 31.725 29.25V31.725H4.275V29.25C4.275 27.81 11.3175 24.525 18 24.525ZM18 0C13.0275 0 9 4.0275 9 9C9 13.9725 13.0275 18 18 18C22.9725 18 27 13.9725 27 9C27 4.0275 22.9725 0 18 0ZM18 20.25C11.9925 20.25 0 23.265 0 29.25V36H36V29.25C36 23.265 24.0075 20.25 18 20.25Z" fill="#8E8E8E"/>
</svg>
