<svg width="30" height="30" viewBox="0 0 30 30" fill="none" xmlns="http://www.w3.org/2000/svg">
<path d="M12.0069 3.43053C14.3739 3.43053 16.518 4.39108 18.0789 5.93482L13.7221 10.2916H24.0137V0L20.4974 3.5163C18.319 1.33791 15.3173 0 12.0069 0C5.95197 0 0.977701 4.47684 0.137221 10.2916H3.60206C4.39108 6.38079 7.85592 3.43053 12.0069 3.43053ZM21.681 19.1081C22.813 17.5643 23.6021 15.729 23.8765 13.7221H20.4117C19.6226 17.6329 16.1578 20.5832 12.0069 20.5832C9.63979 20.5832 7.49571 19.6226 5.93482 18.0789L10.2916 13.7221H0V24.0137L3.5163 20.4974C5.69468 22.6758 8.6964 24.0137 12.0069 24.0137C14.6655 24.0137 17.1184 23.1389 19.1081 21.681L27.4443 30L30 27.4443L21.681 19.1081Z" fill="#404040"/>
</svg>
